# xmcd CD database file
# Copyright (C) 1993-1998 Ti Kan
#
# Track frame offsets:
#	150
#	15800
#	38537
#	59235
#	88650
#	119662
#	154012
#
# Disc length: 2571 seconds
#
# Revision: 1
# Processed by: cddbd v1.4PL0 Copyright (c) Steve Scherf et al.
# Submitted via: CDValet v3.01 - Copyright (c) 1997 Greg Leichner
#
DISCID=500a0907
DTITLE=Chain - History Of Chain, The    -Disk--1-
DYEAR=1900
DGENRE=
TTITLE0=Show Me Home
TTITLE1=Gertrude Street Blues
TTITLE2=On The Road Again
TTITLE3=Lightning Ground
TTITLE4=Black And Blue
TTITLE5=Dust My Blues
TTITLE6=32/20
EXTD=
EXTT0=
EXTT1=
EXTT2=
EXTT3=
EXTT4=
EXTT5=
EXTT6=
PLAYORDER=
